<svg width="220" height="73" viewBox="0 0 220 73" fill="none" xmlns="http://www.w3.org/2000/svg">
<path d="M101.081 5.83398H92.9987L90.1416 27.2941H95.9197L96.2103 23.389H98.16L98.4436 27.2798H104.282L101.081 5.83398ZM98.1387 19.4731H96.2103L97.0469 10.6005C97.0469 10.6005 98.2132 19.4229 98.1387 19.4731Z" fill="white"/>
<path d="M161.276 23.3639C161.382 24.1216 161.681 24.8381 162.145 25.4421C162.722 26.1705 163.484 26.7263 164.35 27.0501C165.433 27.4812 166.589 27.691 167.753 27.6674C168.785 27.6845 169.812 27.5056 170.78 27.1398C171.587 26.8289 172.296 26.3031 172.832 25.618C173.364 24.9432 173.673 23.669 173.779 23.0301C173.921 22.0211 173.977 21.0016 173.945 19.9829V5.8125H168.345V21.7667C168.385 22.4241 168.333 23.0841 168.189 23.7264C168.137 23.8609 168.043 23.9742 167.921 24.0489C167.8 24.1236 167.657 24.1553 167.515 24.1392C167.387 24.1535 167.257 24.1266 167.144 24.0622C167.032 23.9978 166.942 23.8992 166.888 23.7803C166.758 23.2099 166.709 22.6238 166.742 22.0395V5.81968H161.142V18.3821C161.142 20.733 161.184 22.6353 161.269 23.3568" fill="white"/>
<path d="M217.26 5.80908H211.666V27.2836H217.26V5.80908Z" fill="white"/>
<path d="M200.489 18.1272H202.165V27.2798H207.756V5.8125H202.165V13.4576H200.489V5.8125H194.895V27.2798H200.489V18.1272Z" fill="white"/>
<path d="M180.486 26.8205C181.748 27.4325 183.139 27.7244 184.538 27.6712C185.931 27.716 187.31 27.3694 188.522 26.6698C189.455 26.1568 190.189 25.338 190.603 24.3475C190.918 23.4681 191.074 21.3433 191.074 19.2364V18.3965H185.473V21.6269C185.515 22.3432 185.45 23.0618 185.282 23.7589C185.192 23.8981 185.068 24.0124 184.924 24.0915C184.779 24.1706 184.617 24.212 184.452 24.212C184.288 24.212 184.126 24.1706 183.981 24.0915C183.836 24.0124 183.713 23.8981 183.623 23.7589C183.495 23.461 183.456 22.8149 183.456 21.8243V11.7492C183.456 10.7155 183.495 9.68542 183.623 9.36957C183.751 9.05372 184.013 8.91732 184.47 8.91732C184.927 8.91732 185.179 9.03936 185.289 9.27625C185.399 9.51314 185.473 10.5361 185.473 11.559V15.1088H191.064V13.1814C191.064 11.2755 190.89 9.52391 190.557 8.62659C190.148 7.64052 189.4 6.83823 188.451 6.36896C187.223 5.72715 185.851 5.4192 184.47 5.47523C183.337 5.45246 182.21 5.64858 181.149 6.0531C180.287 6.38287 179.527 6.93911 178.947 7.66468C178.454 8.27415 178.129 9.00468 178.004 9.78233C177.874 10.9956 177.818 12.2159 177.838 13.4362V19.3728C177.838 21.372 178.019 23.4825 178.366 24.4803C178.745 25.5125 179.508 26.3529 180.493 26.8205" fill="white"/>
<path d="M112.039 27.269L112.035 13.1417L114.017 27.2654H117.392L119.497 13.1956V27.2654H124.417L124.389 5.8125H117.147L115.768 15.8122L114.389 5.8125H107.147L107.151 27.2654L112.039 27.269Z" fill="white"/>
<path d="M80.068 27.2871H85.2364V19.4769L89.3271 5.83057H84.1836L82.7515 14.2617L81.2697 5.83057H76.1368L80.068 19.4769V27.2871Z" fill="white"/>
<path d="M133.467 23.3819H135.417L135.697 27.2726H141.535L138.345 5.82324H130.255L127.398 27.2834H133.176L133.467 23.3819ZM134.3 10.6041C134.3 10.6041 135.466 19.4301 135.395 19.4732H133.467L134.3 10.6041Z" fill="white"/>
<path d="M145.13 25.331C145.576 26.0383 146.195 26.6169 146.927 27.0108C147.738 27.4416 148.642 27.6624 149.557 27.6533C150.348 27.6533 151.184 27.5348 151.72 27.1436C152.356 26.738 152.866 26.1581 153.191 25.471L153.705 27.2657H157.25V15.9021H150.78V18.7555H151.773V21.6951C151.815 22.3472 151.739 23.0015 151.549 23.6262C151.48 23.7868 151.362 23.921 151.212 24.0093C151.062 24.0977 150.889 24.1357 150.716 24.1179C150.561 24.1348 150.404 24.102 150.268 24.0242C150.132 23.9463 150.024 23.8272 149.958 23.6836C149.806 23.09 149.745 22.4762 149.777 21.8638V11.3796C149.777 10.3316 149.844 9.67115 149.958 9.42349C150.047 9.29346 150.168 9.18968 150.309 9.12282C150.451 9.05595 150.607 9.02841 150.762 9.04303C151.163 9.04303 151.471 9.12558 151.599 9.42349C151.716 9.86842 151.774 10.327 151.773 10.7874C151.773 11.0243 151.773 11.394 151.773 11.6847V13.4111H157.253V12.9445C157.253 11.2648 157.076 9.71422 156.743 8.81332C156.409 7.91242 155.704 7.16585 154.616 6.51261C153.365 5.80386 151.951 5.44578 150.518 5.47532C149.063 5.43899 147.633 5.85897 146.424 6.67772C145.36 7.4171 144.726 8.23545 144.506 9.122C144.234 10.624 144.115 12.1502 144.151 13.6768V19.8933C144.129 21.0324 144.183 22.1716 144.314 23.3031C144.427 24.0317 144.701 24.7251 145.116 25.331" fill="white"/>
<path d="M91.7102 45.3763H85.0158V43.3218C85.0158 42.363 84.9302 41.7524 84.759 41.4898C84.5878 41.2273 84.3025 41.0961 83.903 41.0961C83.4692 41.0961 83.1382 41.273 82.9099 41.6268C82.6931 41.9806 82.5846 42.5171 82.5846 43.2362C82.5846 44.1607 82.7102 44.857 82.9613 45.325C83.201 45.7929 83.8801 46.3579 84.9987 47.02C88.2061 48.9261 90.2264 50.4898 91.0596 51.7111C91.8928 52.9324 92.3094 54.9014 92.3094 57.6179C92.3094 59.5926 92.0754 61.0478 91.6075 61.9838C91.1509 62.9198 90.2606 63.7073 88.9366 64.3465C87.6125 64.9743 86.0716 65.2882 84.3139 65.2882C82.3849 65.2882 80.7356 64.9229 79.3659 64.1924C78.0076 63.4619 77.1173 62.5317 76.695 61.4017C76.2727 60.2717 76.0615 58.668 76.0615 56.5907V54.7758H82.7559V58.1487C82.7559 59.1874 82.8472 59.8551 83.0298 60.1518C83.2238 60.4486 83.5605 60.597 84.0399 60.597C84.5193 60.597 84.8732 60.4087 85.1014 60.032C85.3411 59.6553 85.461 59.096 85.461 58.3541C85.461 56.7219 85.2384 55.6547 84.7933 55.1525C84.3367 54.6503 83.2124 53.8113 81.4204 52.6357C79.6284 51.4486 78.4413 50.5869 77.8592 50.0504C77.2771 49.5139 76.792 48.772 76.4039 47.8247C76.0273 46.8773 75.8389 45.6674 75.8389 44.195C75.8389 42.072 76.1072 40.5196 76.6436 39.538C77.1915 38.5564 78.0704 37.7917 79.2803 37.2438C80.4902 36.6845 81.9512 36.4049 83.6633 36.4049C85.5352 36.4049 87.1274 36.7074 88.4401 37.3123C89.7641 37.9172 90.6373 38.682 91.0596 39.6065C91.4933 40.5196 91.7102 42.0777 91.7102 44.2806V45.3763ZM96.3397 36.987H108.359V42.5342H103.548V47.7904H108.051V53.0637H103.548V59.1588H108.838V64.7061H96.3397V36.987ZM112.68 36.987H117.782C121.184 36.987 123.484 37.1183 124.682 37.3808C125.892 37.6433 126.874 38.3167 127.627 39.4011C128.392 40.474 128.774 42.1918 128.774 44.5545C128.774 46.7118 128.506 48.1614 127.969 48.9033C127.433 49.6452 126.377 50.0903 124.802 50.2387C126.229 50.5926 127.187 51.0662 127.678 51.6598C128.169 52.2533 128.471 52.8012 128.586 53.3034C128.711 53.7942 128.774 55.1582 128.774 57.3953V64.7061H122.08V55.4949C122.08 54.0111 121.96 53.0922 121.72 52.7384C121.492 52.3846 120.881 52.2077 119.888 52.2077V64.7061H112.68V36.987ZM119.888 41.7295V47.8931C120.698 47.8931 121.263 47.7847 121.583 47.5678C121.914 47.3396 122.08 46.6148 122.08 45.3935V43.8697C122.08 42.9908 121.92 42.4144 121.6 42.1404C121.292 41.8665 120.721 41.7295 119.888 41.7295ZM150.456 36.987L146.792 64.7061H135.852L131.691 36.987H139.293C140.172 44.623 140.8 51.0777 141.176 56.351C141.553 51.0206 141.947 46.2838 142.358 42.1404L142.854 36.987H150.456ZM160.65 36.987V64.7061H153.442V36.987H160.65ZM182.127 49.0745H174.919V44.2463C174.919 42.8424 174.839 41.9692 174.679 41.6268C174.531 41.273 174.194 41.0961 173.669 41.0961C173.075 41.0961 172.699 41.3072 172.539 41.7295C172.379 42.1519 172.299 43.065 172.299 44.4689V57.344C172.299 58.6908 172.379 59.5697 172.539 59.9806C172.699 60.3915 173.058 60.597 173.618 60.597C174.154 60.597 174.502 60.3915 174.662 59.9806C174.833 59.5697 174.919 58.6052 174.919 57.0872V53.6116H182.127V54.6902C182.127 57.5551 181.921 59.5868 181.51 60.7853C181.111 61.9838 180.215 63.0339 178.822 63.9356C177.441 64.8373 175.735 65.2882 173.703 65.2882C171.592 65.2882 169.851 64.9058 168.481 64.1411C167.112 63.3763 166.204 62.3205 165.759 60.9737C165.314 59.6154 165.091 57.578 165.091 54.8614V46.7631C165.091 44.7657 165.16 43.2704 165.297 42.2774C165.434 41.273 165.839 40.3085 166.512 39.3839C167.197 38.4594 168.139 37.7346 169.337 37.2096C170.547 36.6731 171.934 36.4049 173.498 36.4049C175.621 36.4049 177.373 36.8158 178.754 37.6376C180.135 38.4594 181.042 39.4867 181.476 40.7194C181.91 41.9407 182.127 43.8468 182.127 46.4378V49.0745ZM186.465 36.987H198.484V42.5342H193.673V47.7904H198.176V53.0637H193.673V59.1588H198.964V64.7061H186.465V36.987ZM218.078 45.3763H211.383V43.3218C211.383 42.363 211.298 41.7524 211.126 41.4898C210.955 41.2273 210.67 41.0961 210.27 41.0961C209.837 41.0961 209.506 41.273 209.277 41.6268C209.06 41.9806 208.952 42.5171 208.952 43.2362C208.952 44.1607 209.078 44.857 209.329 45.325C209.568 45.7929 210.248 46.3579 211.366 47.02C214.573 48.9261 216.594 50.4898 217.427 51.7111C218.26 52.9324 218.677 54.9014 218.677 57.6179C218.677 59.5926 218.443 61.0478 217.975 61.9838C217.518 62.9198 216.628 63.7073 215.304 64.3465C213.98 64.9743 212.439 65.2882 210.681 65.2882C208.752 65.2882 207.103 64.9229 205.733 64.1924C204.375 63.4619 203.485 62.5317 203.062 61.4017C202.64 60.2717 202.429 58.668 202.429 56.5907V54.7758H209.123V58.1487C209.123 59.1874 209.215 59.8551 209.397 60.1518C209.591 60.4486 209.928 60.597 210.407 60.597C210.887 60.597 211.241 60.4087 211.469 60.032C211.709 59.6553 211.828 59.096 211.828 58.3541C211.828 56.7219 211.606 55.6547 211.161 55.1525C210.704 54.6503 209.58 53.8113 207.788 52.6357C205.996 51.4486 204.809 50.5869 204.227 50.0504C203.645 49.5139 203.159 48.772 202.771 47.8247C202.395 46.8773 202.206 45.6674 202.206 44.195C202.206 42.072 202.475 40.5196 203.011 39.538C203.559 38.5564 204.438 37.7917 205.648 37.2438C206.858 36.6845 208.319 36.4049 210.031 36.4049C211.903 36.4049 213.495 36.7074 214.807 37.3123C216.132 37.9172 217.005 38.682 217.427 39.6065C217.861 40.5196 218.078 42.0777 218.078 44.2806V45.3763Z" fill="white"/>
<ellipse cx="34.529" cy="34.9617" rx="29.3496" ry="29.7175" fill="white"/>
<path d="M34.5225 6.73978e-07C41.352 -0.00135682 48.0286 2.04796 53.7078 5.88878C59.387 9.7296 63.8137 15.1894 66.4282 21.5777C69.0427 27.966 69.7274 34.9959 68.3959 41.7782C67.0643 48.5606 63.7763 54.7908 58.9475 59.681C54.1188 64.5712 47.9663 67.9016 41.2681 69.2512C34.5699 70.6008 27.6269 69.9088 21.3171 67.2628C15.0073 64.6169 9.61413 60.1357 5.8197 54.3862C2.02528 48.6366 1.31596e-07 41.8768 0 34.9617C-1.76435e-07 25.6905 3.63697 16.7989 10.111 10.2425C16.585 3.68608 25.3659 0.00182071 34.5225 6.73978e-07ZM51.577 24.5432C52.3401 23.7705 52.7689 22.7225 52.7689 21.6297C52.7689 20.537 52.3401 19.489 51.577 18.7163C50.8138 17.9436 49.7788 17.5095 48.6996 17.5095C47.6203 17.5095 46.5853 17.9436 45.8221 18.7163L35.0987 29.574H34.2717L23.5482 18.7163C22.7851 17.9427 21.7497 17.5077 20.6698 17.507C19.5899 17.5064 18.554 17.9401 17.79 18.7128C17.0259 19.4855 16.5963 20.5339 16.5957 21.6273C16.5951 22.7207 17.0234 23.7696 17.7866 24.5432L30.53 37.4325V55.8811C30.5731 56.9541 31.0243 57.9686 31.7893 58.7123C32.5543 59.4561 33.5738 59.8714 34.6343 59.8714C35.6949 59.8714 36.7143 59.4561 37.4793 58.7123C38.2443 57.9686 38.6956 56.9541 38.7387 55.8811V37.5355L51.577 24.5432Z" fill="#E03638"/>
</svg>
