<svg width="56" height="20" viewBox="0 0 56 20" fill="none" xmlns="http://www.w3.org/2000/svg">
<path d="M25.2022 2.27783H23.1884L22.4766 7.62478H23.9162L23.9886 6.6518H24.4744L24.5451 7.6212H25.9997L25.2022 2.27783ZM24.4691 5.67613H23.9886L24.1971 3.46545C24.1971 3.46545 24.4877 5.66361 24.4691 5.67613Z" fill="#233146"/>
<path d="M40.2003 6.64504C40.2265 6.83382 40.3011 7.01234 40.4167 7.16283C40.5606 7.34432 40.7505 7.4828 40.9661 7.56348C41.2359 7.67089 41.5241 7.72316 41.8139 7.71729C42.0713 7.72155 42.3271 7.67696 42.5682 7.58583C42.7693 7.50835 42.946 7.37735 43.0796 7.20666C43.2121 7.03853 43.2889 6.72106 43.3154 6.56187C43.3509 6.31048 43.3648 6.05644 43.3569 5.80262V2.27197H41.9614V6.24708C41.9716 6.41089 41.9585 6.57532 41.9226 6.73536C41.9097 6.76886 41.8863 6.79711 41.856 6.81571C41.8256 6.83431 41.79 6.84222 41.7548 6.83821C41.7227 6.84178 41.6904 6.83506 41.6624 6.81902C41.6343 6.80297 41.612 6.7784 41.5984 6.74878C41.5662 6.60666 41.554 6.46063 41.5622 6.31505V2.27376H40.1667V5.40377C40.1667 5.98953 40.1773 6.4635 40.1985 6.64325" fill="#233146"/>
<path d="M54.149 2.27148H52.7552V7.62201H54.149V2.27148Z" fill="#233146"/>
<path d="M49.9703 5.34028H50.388V7.62071H51.7809V2.27197H50.388V4.17681H49.9703V2.27197H48.5765V7.62071H49.9703V5.34028Z" fill="#233146"/>
<path d="M44.9864 7.50647C45.301 7.65895 45.6474 7.73169 45.9959 7.71842C46.3432 7.72959 46.6868 7.64323 46.9887 7.46891C47.2212 7.3411 47.404 7.13709 47.5071 6.89031C47.5857 6.67121 47.6246 6.14179 47.6246 5.61684V5.40758H46.2291V6.21244C46.2394 6.39092 46.2233 6.56996 46.1814 6.74364C46.1589 6.77833 46.1282 6.8068 46.0921 6.82651C46.0561 6.84622 46.0157 6.85653 45.9747 6.85653C45.9337 6.85653 45.8934 6.84622 45.8573 6.82651C45.8212 6.8068 45.7906 6.77833 45.768 6.74364C45.7362 6.66942 45.7265 6.50845 45.7265 6.26162V3.75135C45.7265 3.4938 45.7362 3.23714 45.768 3.15844C45.7998 3.07974 45.8652 3.04576 45.9791 3.04576C46.0931 3.04576 46.1558 3.07617 46.1832 3.13519C46.2105 3.19421 46.2291 3.44909 46.2291 3.70396V4.58841H47.6219V4.10818C47.6219 3.63331 47.5786 3.1969 47.4956 2.97332C47.3939 2.72764 47.2074 2.52774 46.971 2.41082C46.665 2.25091 46.3232 2.17418 45.9791 2.18814C45.6967 2.18247 45.4159 2.23133 45.1516 2.33212C44.9368 2.41428 44.7475 2.55288 44.6031 2.73365C44.4802 2.88551 44.3992 3.06753 44.3681 3.26128C44.3356 3.56358 44.3218 3.86763 44.3266 4.17167V5.65082C44.3266 6.14894 44.3717 6.67478 44.4582 6.92339C44.5525 7.18058 44.7429 7.38997 44.9882 7.50647" fill="#233146"/>
<path d="M27.9325 7.61803L27.9316 4.09811L28.4253 7.61713H29.2661L29.7908 4.11152V7.61713H31.0167L31.0096 2.27197H29.2052L28.8616 4.76346L28.518 2.27197H26.7136L26.7145 7.61713L27.9325 7.61803Z" fill="#233146"/>
<path d="M19.9667 7.62291H21.2544V5.67694L22.2736 2.27686H20.9921L20.6353 4.37754L20.2661 2.27686H18.9872L19.9667 5.67694V7.62291Z" fill="#233146"/>
<path d="M33.2713 6.64976H33.7571L33.8269 7.61917H35.2816L34.4867 2.2749H32.4712L31.7593 7.62185H33.1989L33.2713 6.64976ZM33.4789 3.46609C33.4789 3.46609 33.7695 5.66515 33.7518 5.67588H33.2713L33.4789 3.46609Z" fill="#233146"/>
<path d="M36.1772 7.13524C36.2884 7.31146 36.4426 7.45562 36.625 7.55377C36.827 7.66111 37.0522 7.71611 37.2804 7.71385C37.4773 7.71385 37.6857 7.68434 37.8191 7.58686C37.9777 7.4858 38.1048 7.34131 38.1856 7.17012L38.3137 7.61727H39.1969V4.78595H37.5851V5.49691H37.8324V6.22933C37.8428 6.3918 37.8239 6.55483 37.7767 6.71046C37.7594 6.75049 37.7299 6.78391 37.6926 6.80593C37.6553 6.82795 37.6121 6.83741 37.5692 6.83297C37.5304 6.8372 37.4914 6.82903 37.4575 6.80962C37.4236 6.79021 37.3965 6.76054 37.3802 6.72477C37.3422 6.57687 37.327 6.42394 37.3351 6.27136V3.65915C37.3351 3.39801 37.3519 3.23346 37.3802 3.17176C37.4023 3.13936 37.4325 3.1135 37.4677 3.09684C37.5029 3.08018 37.5419 3.07332 37.5806 3.07696C37.6804 3.07696 37.7573 3.09753 37.7891 3.17176C37.8182 3.28262 37.8328 3.39688 37.8324 3.51159C37.8324 3.57061 37.8324 3.66272 37.8324 3.73516V4.16531H39.1978V4.04906C39.1978 3.63053 39.1537 3.2442 39.0706 3.01973C38.9876 2.79526 38.8119 2.60925 38.5407 2.44649C38.2291 2.2699 37.8767 2.18068 37.5197 2.18804C37.1573 2.17899 36.801 2.28363 36.4996 2.48763C36.2346 2.67185 36.0765 2.87575 36.0218 3.09664C35.9541 3.47087 35.9245 3.85114 35.9334 4.23149V5.7804C35.9278 6.0642 35.9413 6.34805 35.9741 6.62997C36.002 6.81151 36.0703 6.98426 36.1737 7.13524" fill="#233146"/>
<path d="M22.8674 12.409H21.1995V11.8971C21.1995 11.6582 21.1782 11.506 21.1355 11.4406C21.0929 11.3752 21.0218 11.3425 20.9222 11.3425C20.8142 11.3425 20.7317 11.3866 20.6748 11.4747C20.6208 11.5629 20.5938 11.6966 20.5938 11.8757C20.5938 12.1061 20.625 12.2796 20.6876 12.3962C20.7473 12.5128 20.9165 12.6535 21.1952 12.8185C21.9944 13.2934 22.4977 13.683 22.7053 13.9873C22.913 14.2916 23.0168 14.7822 23.0168 15.459C23.0168 15.951 22.9585 16.3136 22.8419 16.5468C22.7281 16.78 22.5063 16.9763 22.1764 17.1355C21.8465 17.2919 21.4626 17.3701 21.0246 17.3701C20.544 17.3701 20.133 17.2791 19.7918 17.0971C19.4533 16.9151 19.2315 16.6833 19.1263 16.4018C19.0211 16.1202 18.9685 15.7207 18.9685 15.2031V14.7509H20.6364V15.5913C20.6364 15.8501 20.6592 16.0164 20.7047 16.0904C20.753 16.1643 20.8369 16.2013 20.9563 16.2013C21.0758 16.2013 21.164 16.1544 21.2208 16.0605C21.2806 15.9667 21.3104 15.8273 21.3104 15.6425C21.3104 15.2358 21.255 14.9699 21.144 14.8448C21.0303 14.7196 20.7502 14.5106 20.3037 14.2177C19.8572 13.9219 19.5614 13.7072 19.4164 13.5735C19.2713 13.4399 19.1505 13.255 19.0538 13.019C18.9599 12.7829 18.913 12.4815 18.913 12.1146C18.913 11.5856 18.9798 11.1989 19.1135 10.9543C19.25 10.7097 19.469 10.5192 19.7704 10.3827C20.0719 10.2433 20.4359 10.1737 20.8625 10.1737C21.3289 10.1737 21.7256 10.249 22.0527 10.3997C22.3826 10.5505 22.6001 10.741 22.7053 10.9714C22.8134 11.1989 22.8674 11.5871 22.8674 12.1359V12.409ZM24.0209 10.3187H27.0156V11.7008H25.8169V13.0104H26.9388V14.3243H25.8169V15.843H27.135V17.2251H24.0209V10.3187ZM28.0923 10.3187H29.3635C30.211 10.3187 30.784 10.3514 31.0826 10.4168C31.3841 10.4822 31.6286 10.65 31.8163 10.9202C32.0069 11.1875 32.1022 11.6155 32.1022 12.2042C32.1022 12.7417 32.0353 13.1029 31.9017 13.2877C31.768 13.4726 31.5049 13.5835 31.1125 13.6205C31.468 13.7086 31.7069 13.8266 31.8291 13.9745C31.9514 14.1224 32.0268 14.2589 32.0552 14.384C32.0865 14.5063 32.1022 14.8462 32.1022 15.4036V17.2251H30.4342V14.9301C30.4342 14.5604 30.4043 14.3314 30.3446 14.2433C30.2877 14.1551 30.1356 14.111 29.8882 14.111V17.2251H28.0923V10.3187ZM29.8882 11.5003V13.036C30.0901 13.036 30.2309 13.009 30.3105 12.955C30.393 12.8981 30.4342 12.7175 30.4342 12.4132V12.0336C30.4342 11.8146 30.3944 11.671 30.3148 11.6027C30.238 11.5345 30.0958 11.5003 29.8882 11.5003ZM37.5044 10.3187L36.5915 17.2251H33.8657L32.8291 10.3187H34.7231C34.9421 12.2213 35.0985 13.8295 35.1923 15.1434C35.2862 13.8153 35.3843 12.635 35.4867 11.6027L35.6104 10.3187H37.5044ZM40.0443 10.3187V17.2251H38.2484V10.3187H40.0443ZM45.3954 13.3304H43.5995V12.1274C43.5995 11.7776 43.5796 11.5601 43.5397 11.4747C43.5028 11.3866 43.4189 11.3425 43.2881 11.3425C43.1402 11.3425 43.0463 11.3951 43.0065 11.5003C42.9667 11.6056 42.9468 11.8331 42.9468 12.1829V15.3908C42.9468 15.7264 42.9667 15.9453 43.0065 16.0477C43.0463 16.1501 43.1359 16.2013 43.2753 16.2013C43.4089 16.2013 43.4957 16.1501 43.5355 16.0477C43.5781 15.9453 43.5995 15.705 43.5995 15.3268V14.4608H45.3954V14.7296C45.3954 15.4434 45.3442 15.9496 45.2418 16.2482C45.1423 16.5468 44.919 16.8085 44.5721 17.0331C44.228 17.2578 43.8028 17.3701 43.2966 17.3701C42.7705 17.3701 42.3368 17.2749 41.9955 17.0843C41.6542 16.8938 41.4282 16.6307 41.3172 16.2951C41.2063 15.9567 41.1509 15.4491 41.1509 14.7722V12.7545C41.1509 12.2568 41.1679 11.8843 41.2021 11.6368C41.2362 11.3866 41.3371 11.1463 41.5049 10.9159C41.6756 10.6856 41.9102 10.505 42.2088 10.3741C42.5103 10.2405 42.8558 10.1737 43.2454 10.1737C43.7744 10.1737 44.2109 10.276 44.555 10.4808C44.8991 10.6856 45.1252 10.9415 45.2333 11.2486C45.3414 11.5529 45.3954 12.0279 45.3954 12.6734V13.3304ZM46.4764 10.3187H49.471V11.7008H48.2723V13.0104H49.3942V14.3243H48.2723V15.843H49.5904V17.2251H46.4764V10.3187ZM54.3528 12.409H52.6849V11.8971C52.6849 11.6582 52.6635 11.506 52.6209 11.4406C52.5782 11.3752 52.5071 11.3425 52.4076 11.3425C52.2995 11.3425 52.2171 11.3866 52.1602 11.4747C52.1061 11.5629 52.0791 11.6966 52.0791 11.8757C52.0791 12.1061 52.1104 12.2796 52.173 12.3962C52.2327 12.5128 52.4019 12.6535 52.6806 12.8185C53.4797 13.2934 53.9831 13.683 54.1907 13.9873C54.3983 14.2916 54.5021 14.7822 54.5021 15.459C54.5021 15.951 54.4438 16.3136 54.3272 16.5468C54.2135 16.78 53.9916 16.9763 53.6618 17.1355C53.3319 17.2919 52.9479 17.3701 52.51 17.3701C52.0294 17.3701 51.6184 17.2791 51.2771 17.0971C50.9387 16.9151 50.7169 16.6833 50.6117 16.4018C50.5064 16.1202 50.4538 15.7207 50.4538 15.2031V14.7509H52.1218V15.5913C52.1218 15.8501 52.1445 16.0164 52.19 16.0904C52.2384 16.1643 52.3223 16.2013 52.4417 16.2013C52.5612 16.2013 52.6493 16.1544 52.7062 16.0605C52.7659 15.9667 52.7958 15.8273 52.7958 15.6425C52.7958 15.2358 52.7403 14.9699 52.6294 14.8448C52.5157 14.7196 52.2355 14.5106 51.789 14.2177C51.3426 13.9219 51.0468 13.7072 50.9018 13.5735C50.7567 13.4399 50.6358 13.255 50.5392 13.019C50.4453 12.7829 50.3984 12.4815 50.3984 12.1146C50.3984 11.5856 50.4652 11.1989 50.5989 10.9543C50.7354 10.7097 50.9544 10.5192 51.2558 10.3827C51.5573 10.2433 51.9213 10.1737 52.3479 10.1737C52.8143 10.1737 53.211 10.249 53.538 10.3997C53.8679 10.5505 54.0855 10.741 54.1907 10.9714C54.2988 11.1989 54.3528 11.5871 54.3528 12.1359V12.409Z" fill="#233146"/>
<ellipse cx="8.62017" cy="9.5347" rx="7.31268" ry="7.40433" fill="white"/>
<path d="M8.61862 0.823731C10.3203 0.823392 11.9838 1.33399 13.3988 2.29096C14.8138 3.24793 15.9168 4.60828 16.5682 6.19998C17.2196 7.79167 17.3902 9.54321 17.0584 11.2331C16.7267 12.923 15.9074 14.4753 14.7043 15.6937C13.5012 16.9121 11.9682 17.7419 10.2993 18.0782C8.63043 18.4144 6.90052 18.242 5.32839 17.5828C3.75626 16.9235 2.41252 15.807 1.46711 14.3744C0.521703 12.9419 0.0170899 11.2576 0.0170898 9.53471C0.0170898 7.22471 0.923267 5.0093 2.53632 3.37572C4.14937 1.74215 6.3372 0.824184 8.61862 0.823731ZM12.8679 6.93886C13.058 6.74633 13.1648 6.48521 13.1648 6.21294C13.1648 5.94067 13.058 5.67955 12.8679 5.48703C12.6777 5.2945 12.4198 5.18634 12.1509 5.18634C11.882 5.18634 11.6242 5.2945 11.434 5.48703L8.76218 8.19232H8.55614L5.88431 5.48703C5.69416 5.29428 5.43618 5.1859 5.16712 5.18574C4.89806 5.18558 4.63996 5.29365 4.44959 5.48617C4.25922 5.6787 4.15219 5.93991 4.15203 6.21234C4.15187 6.48477 4.2586 6.74611 4.44875 6.93886L7.62387 10.1503V14.7469C7.6346 15.0143 7.74703 15.267 7.93764 15.4523C8.12824 15.6376 8.38225 15.7411 8.64649 15.7411C8.91074 15.7411 9.16474 15.6376 9.35534 15.4523C9.54595 15.267 9.65838 15.0143 9.66912 14.7469V10.176L12.8679 6.93886Z" fill="#E03638"/>
</svg>
